<svg width="82" height="86" viewBox="0 0 82 86" fill="none" xmlns="http://www.w3.org/2000/svg">
<g filter="url(#filter0_d_4_11)">
<path d="M58.5557 23L55.2218 59.1108L40.7776 63L26.3332 59.1108L23 23H58.5557ZM51.8378 30.3426H40.7646H29.4953L30.0342 34.7033H40.7646H41.3674L40.7646 34.9542L30.4264 39.2599L30.7693 43.5224L40.7646 43.5548L46.1218 43.5718L45.7789 49.2553L40.7645 50.667V50.6626L40.7234 50.674L35.8808 49.4515L35.587 45.9235H35.5709H31.0792H31.0634L31.6513 52.7343L40.7647 55.4293V55.4245L40.7811 55.4293L49.8457 52.7834L51.0215 39.2599H40.7647H40.7394L40.7647 39.249L51.3972 34.7033L51.8378 30.3426Z" fill="#0088FF" stroke="#0088FF"/>
</g>
<defs>
<filter id="filter0_d_4_11" x="0.451721" y="0.5" width="80.6522" height="85.0178" filterUnits="userSpaceOnUse" color-interpolation-filters="sRGB">
<feFlood flood-opacity="0" result="BackgroundImageFix"/>
<feColorMatrix in="SourceAlpha" type="matrix" values="0 0 0 0 0 0 0 0 0 0 0 0 0 0 0 0 0 0 127 0" result="hardAlpha"/>
<feOffset/>
<feGaussianBlur stdDeviation="11"/>
<feComposite in2="hardAlpha" operator="out"/>
<feColorMatrix type="matrix" values="0 0 0 0 0 0 0 0 0 0.533333 0 0 0 0 1 0 0 0 0.33 0"/>
<feBlend mode="normal" in2="BackgroundImageFix" result="effect1_dropShadow_4_11"/>
<feBlend mode="normal" in="SourceGraphic" in2="effect1_dropShadow_4_11" result="shape"/>
</filter>
</defs>
</svg>
