<svg width="77" height="82" viewBox="0 0 77 82" fill="none" xmlns="http://www.w3.org/2000/svg">
<g filter="url(#filter0_d_4_15)">
<path d="M21 21L24.2097 57.0017L38.6134 61L53.0569 56.9961L56.2702 21H21ZM49.5748 29.5437L49.3739 31.7821L49.2856 32.7748H49.2709H38.6351H38.6197H32.3888L32.7923 37.2962H38.6197H38.6351H47.6937H48.8836L48.7758 38.4818L47.7382 50.1066L47.6718 50.8521L38.6351 53.3566V53.3575L38.6148 53.3632L29.57 50.8521L28.9514 43.9194H30.9943H33.3838L33.6982 47.4408L38.6156 48.7688L38.6197 48.7677V48.7672L43.5446 47.4383L44.0567 41.7116H38.6351H38.6197H28.7541L27.6689 29.5437L27.5632 28.3593H38.6198H38.6351H49.6805L49.5748 29.5437Z" fill="#DE6B0D" stroke="#DE6B0D"/>
</g>
<defs>
<filter id="filter0_d_4_15" x="0.453438" y="0.5" width="76.3634" height="81.0189" filterUnits="userSpaceOnUse" color-interpolation-filters="sRGB">
<feFlood flood-opacity="0" result="BackgroundImageFix"/>
<feColorMatrix in="SourceAlpha" type="matrix" values="0 0 0 0 0 0 0 0 0 0 0 0 0 0 0 0 0 0 127 0" result="hardAlpha"/>
<feOffset/>
<feGaussianBlur stdDeviation="10"/>
<feComposite in2="hardAlpha" operator="out"/>
<feColorMatrix type="matrix" values="0 0 0 0 0.870588 0 0 0 0 0.419608 0 0 0 0 0.0509804 0 0 0 0.3 0"/>
<feBlend mode="normal" in2="BackgroundImageFix" result="effect1_dropShadow_4_15"/>
<feBlend mode="normal" in="SourceGraphic" in2="effect1_dropShadow_4_15" result="shape"/>
</filter>
</defs>
</svg>
