<svg width="78" height="78" viewBox="0 0 78 78" fill="none" xmlns="http://www.w3.org/2000/svg">
<g filter="url(#filter0_d_49_36)">
<path d="M19 19V59H59V19H19ZM40.7686 50.1957C40.7686 54.0886 38.4829 55.8657 35.1529 55.8657C32.1443 55.8657 30.4029 54.3129 29.51 52.4286L32.5729 50.58C33.1629 51.6243 33.6986 52.5086 34.9929 52.5086C36.2243 52.5086 37.01 52.0257 37.01 50.1429V37.3657H40.7686V50.1957ZM49.66 55.8657C46.1686 55.8657 43.91 54.2057 42.8114 52.0257L45.8743 50.2586C46.6786 51.5714 47.7314 52.5443 49.58 52.5443C51.1329 52.5443 52.1343 51.7671 52.1343 50.6871C52.1343 49.4014 51.1157 48.9457 49.3929 48.1871L48.4557 47.7857C45.7414 46.6343 43.9471 45.1786 43.9471 42.1157C43.9471 39.2943 46.0986 37.1514 49.4471 37.1514C51.84 37.1514 53.5543 37.9814 54.7871 40.16L51.8586 42.0357C51.2157 40.8843 50.5186 40.4286 49.4386 40.4286C48.3414 40.4286 47.6443 41.1257 47.6443 42.0357C47.6443 43.1614 48.3414 43.6157 49.9571 44.3214L50.8943 44.7229C54.0914 46.0886 55.8857 47.4914 55.8857 50.6329C55.8857 54.0086 53.2243 55.8643 49.6614 55.8643L49.66 55.8657Z" fill="#F1DC50" stroke="#F1DC50" stroke-width="0.192"/>
</g>
<defs>
<filter id="filter0_d_49_36" x="0.903999" y="0.904007" width="76.192" height="76.192" filterUnits="userSpaceOnUse" color-interpolation-filters="sRGB">
<feFlood flood-opacity="0" result="BackgroundImageFix"/>
<feColorMatrix in="SourceAlpha" type="matrix" values="0 0 0 0 0 0 0 0 0 0 0 0 0 0 0 0 0 0 127 0" result="hardAlpha"/>
<feOffset/>
<feGaussianBlur stdDeviation="9"/>
<feComposite in2="hardAlpha" operator="out"/>
<feColorMatrix type="matrix" values="0 0 0 0 0.945098 0 0 0 0 0.862745 0 0 0 0 0.313726 0 0 0 0.33 0"/>
<feBlend mode="normal" in2="BackgroundImageFix" result="effect1_dropShadow_49_36"/>
<feBlend mode="normal" in="SourceGraphic" in2="effect1_dropShadow_49_36" result="shape"/>
</filter>
</defs>
</svg>
