<svg width="88" height="85" viewBox="0 0 88 85" fill="none" xmlns="http://www.w3.org/2000/svg">
<g filter="url(#filter0_d_3_28)">
<path d="M36.1247 27.9974C35.4974 28.3596 34.8372 29.3585 34.7606 31.5372C34.7242 32.5721 33.8557 33.3815 32.8209 33.3451C31.786 33.3087 30.9765 32.4403 31.0129 31.4054C31.1068 28.7344 31.9515 26.0767 34.2497 24.7498C36.5545 23.4192 39.2871 24.0234 41.6532 25.2857C42.5668 25.7732 42.9124 26.909 42.4249 27.8226C41.9375 28.7362 40.8017 29.0818 39.8881 28.5944C37.9545 27.5628 36.7539 27.6341 36.1247 27.9974ZM46.1785 31.2497C46.9759 30.589 48.1579 30.6999 48.8185 31.4973C50.2045 33.1701 51.534 35.0777 52.7407 37.168C55.3415 41.6723 56.945 46.2872 57.3772 50.1581C57.593 52.0903 57.527 53.9291 57.0757 55.5061C56.621 57.0951 55.7352 58.5333 54.2497 59.3908C52.4525 60.4286 50.3772 60.2813 48.4778 59.5898C46.5717 58.8958 44.6099 57.5816 42.7396 55.8746C41.9748 55.1763 41.9208 53.9903 42.6189 53.2256C43.317 52.4608 44.503 52.4066 45.2678 53.1048C46.9156 54.6088 48.4642 55.5938 49.7607 56.0661C51.0642 56.5406 51.8842 56.4266 52.3747 56.1433C52.7857 55.9061 53.1992 55.4226 53.4705 54.4743C53.7452 53.5143 53.832 52.1998 53.6505 50.5741C53.288 47.3288 51.8977 43.2077 49.4932 39.043C48.3873 37.1275 47.177 35.3939 45.9308 33.8897C45.2702 33.0923 45.381 31.9103 46.1785 31.2497Z" fill="#00E2E6"/>
<path d="M60.25 42.5815C60.25 41.8571 59.715 40.7859 57.8665 39.6302C56.9885 39.0813 56.7218 37.9245 57.2708 37.0464C57.8198 36.1684 58.9765 35.9016 59.8545 36.4505C62.1208 37.8674 64 39.9277 64 42.5815C64 45.2428 62.1105 47.3071 59.8343 48.7251C58.9552 49.2726 57.7988 49.0041 57.2513 48.1251C56.7038 47.2461 56.9725 46.0897 57.8512 45.5422C59.7115 44.3834 60.25 43.3081 60.25 42.5815ZM52.4065 49.6621C52.58 50.6831 51.893 51.6513 50.872 51.8248C48.7305 52.1886 46.4137 52.3861 44 52.3861C38.7989 52.3861 34.0005 51.4676 30.4321 49.9063C28.6508 49.1271 27.0915 48.1506 25.9513 46.9713C24.8024 45.783 24 44.2967 24 42.5815C24 40.5063 25.1652 38.7825 26.7137 37.4835C28.2678 36.1797 30.3868 35.1378 32.8003 34.3717C33.7873 34.0584 34.8414 34.6045 35.1547 35.5915C35.468 36.5785 34.9219 37.6326 33.9348 37.9459C31.8083 38.6209 30.181 39.4695 29.1238 40.3564C28.061 41.248 27.75 42.015 27.75 42.5815C27.75 43.056 27.9619 43.6558 28.6474 44.3648C29.3416 45.0829 30.4366 45.8152 31.9352 46.4708C34.9269 47.7796 39.191 48.6361 44 48.6361C46.2119 48.6361 48.3183 48.4548 50.244 48.1276C51.265 47.9543 52.2333 48.6413 52.4065 49.6621Z" fill="#00E2E6"/>
<path d="M36.1798 56.1436C36.8071 56.5058 38.0023 56.5781 39.9274 55.5551C40.8418 55.0691 41.977 55.4166 42.463 56.3308C42.9489 57.2453 42.6015 58.3806 41.6871 58.8666C39.327 60.1206 36.603 60.7181 34.3048 59.3911C32.0001 58.0606 31.157 55.3918 31.0672 52.7116C31.0325 51.6766 31.8433 50.8096 32.8783 50.7748C33.9132 50.7401 34.7804 51.5508 34.8151 52.5858C34.8885 54.7763 35.5506 55.7803 36.1798 56.1436ZM33.9694 45.8106C32.9986 45.4504 32.5036 44.3713 32.8639 43.4004C33.6196 41.3638 34.6068 39.2586 35.8137 37.1683C38.4143 32.664 41.609 28.9677 44.7451 26.6581C46.3108 25.505 47.936 24.6428 49.5275 24.2451C51.131 23.8443 52.8195 23.8925 54.3047 24.7501C56.102 25.7877 57.0122 27.6587 57.363 29.6493C57.715 31.647 57.558 34.0031 57.0145 36.4763C56.7922 37.4877 55.7922 38.1275 54.781 37.9054C53.7695 37.6832 53.1297 36.6831 53.352 35.6717C53.8305 33.4926 53.9092 31.659 53.67 30.3C53.4292 28.9338 52.9202 28.2809 52.4297 27.9977C52.019 27.7605 51.3935 27.6441 50.4368 27.8832C49.4678 28.1254 48.286 28.7075 46.9689 29.6775C44.3396 31.614 41.4658 34.8785 39.0613 39.0433C37.9553 40.9588 37.0592 42.8737 36.3796 44.7051C36.0193 45.6759 34.9403 46.1709 33.9694 45.8106Z" fill="#00E2E6"/>
<path d="M47.6481 42.233C47.6481 44.1099 46.1266 45.6315 44.2497 45.6315C42.3728 45.6315 40.8512 44.1099 40.8512 42.233C40.8512 40.3561 42.3728 38.8346 44.2497 38.8346C46.1266 38.8346 47.6481 40.3561 47.6481 42.233Z" fill="#00E2E6"/>
</g>
<defs>
<filter id="filter0_d_3_28" x="0" y="0" width="88" height="84.1409" filterUnits="userSpaceOnUse" color-interpolation-filters="sRGB">
<feFlood flood-opacity="0" result="BackgroundImageFix"/>
<feColorMatrix in="SourceAlpha" type="matrix" values="0 0 0 0 0 0 0 0 0 0 0 0 0 0 0 0 0 0 127 0" result="hardAlpha"/>
<feOffset/>
<feGaussianBlur stdDeviation="12"/>
<feComposite in2="hardAlpha" operator="out"/>
<feColorMatrix type="matrix" values="0 0 0 0 0 0 0 0 0 0.886275 0 0 0 0 0.901961 0 0 0 0.3 0"/>
<feBlend mode="normal" in2="BackgroundImageFix" result="effect1_dropShadow_3_28"/>
<feBlend mode="normal" in="SourceGraphic" in2="effect1_dropShadow_3_28" result="shape"/>
</filter>
</defs>
</svg>
