<svg width="73" height="63" viewBox="0 0 73 63" fill="none" xmlns="http://www.w3.org/2000/svg">
<g filter="url(#filter0_d_47_3)">
<path d="M52.4392 33.0885C51.1832 33.09 49.944 33.3413 48.8153 33.8235C48.4619 33.3103 48.189 32.7579 48.0039 32.181C47.8976 31.7289 47.873 31.2649 47.9311 30.806C48.0532 30.3011 48.2116 29.8035 48.4053 29.316C48.3982 29.2523 48.3182 28.951 47.514 28.941C46.7098 28.931 46.017 29.0748 45.9427 29.261C45.8031 29.6012 45.6909 29.9496 45.607 30.3035C44.9415 31.7404 44.1222 33.1191 43.1602 34.421C42.6212 33.6478 42.3995 32.7369 42.5316 31.8385C42.6537 31.3336 42.8121 30.836 43.0059 30.3485C42.9987 30.2848 42.9187 29.9835 42.1145 29.9735C41.3103 29.9635 40.6176 30.1073 40.5433 30.2935C40.469 30.4798 40.3747 30.9185 40.2076 31.336C40.0405 31.7535 38.0892 35.5685 37.5779 36.5523C37.315 37.0523 37.0879 37.4598 36.9279 37.7348C36.9203 37.7526 36.9108 37.7698 36.8994 37.786C36.7565 38.0223 36.6808 38.151 36.6808 38.151V38.1573C36.5708 38.3298 36.4537 38.4898 36.3951 38.4898C36.293 38.1327 36.2979 37.7585 36.4094 37.4035C36.6951 36.0798 37.395 34.0223 37.3879 33.951C37.3879 33.9123 37.5193 33.5548 36.9351 33.3698C36.7996 33.3134 36.6474 33.2951 36.4996 33.3175C36.3517 33.3398 36.2154 33.4018 36.1094 33.4948C36.058 33.4948 36.0223 33.6035 36.0223 33.6035C36.0223 33.6035 36.658 31.2898 34.8096 31.2898C34.0898 31.4165 33.4062 31.6679 32.7991 32.0292C32.1919 32.3904 31.6735 32.8543 31.2742 33.3935C30.7771 33.6298 29.7187 34.1348 28.5859 34.6785C28.1574 34.8898 27.7089 35.101 27.2932 35.3035C27.2646 35.2785 27.2346 35.246 27.2061 35.221C24.9563 33.1235 20.821 31.6435 20.9996 28.8373C21.0653 27.8148 21.4667 25.1298 28.9402 21.8685C35.091 19.216 39.9862 19.951 40.8332 21.581C42.046 23.9085 38.2107 28.2298 31.8556 28.856C31.1525 28.9808 30.4264 28.9658 29.7309 28.812C29.0354 28.6581 28.3883 28.3694 27.8374 27.9673C27.5018 27.6473 27.4503 27.6285 27.3261 27.6923C27.1218 27.7885 27.2532 28.076 27.3261 28.2423C27.5685 28.6262 27.8964 28.9637 28.2904 29.2349C28.6844 29.5061 29.1366 29.7054 29.6201 29.821C32.1202 30.2938 34.7268 30.0678 37.0722 29.1748C40.929 27.871 43.9286 24.246 43.0487 21.2098C42.1645 18.1285 36.3209 17.1123 30.79 18.8348C27.3257 19.8549 24.1247 21.4617 21.3695 23.5635C18.3227 26.0573 17.8413 28.2235 18.0384 29.1323C18.7526 32.3548 23.825 34.451 25.8548 36.0073C25.7519 36.0585 25.6577 36.1035 25.5777 36.141C24.5621 36.5823 20.691 38.3535 19.7211 40.226C18.6255 42.351 19.8968 43.8698 20.7367 44.0748C22.0023 44.3399 23.3309 44.2526 24.5371 43.825C25.7432 43.3974 26.7667 42.6509 27.4646 41.6898C28.0589 40.8925 28.4242 39.9814 28.5294 39.034C28.6347 38.0866 28.4766 37.131 28.0688 36.2485C28.0619 36.2343 28.0523 36.2212 28.0403 36.2098L28.8359 35.801C29.3544 35.5323 29.8658 35.2835 30.3043 35.0785C30.007 35.8291 29.8324 36.6127 29.7858 37.406C29.6848 38.622 30.1101 39.8267 30.9771 40.781C31.109 40.8804 31.2622 40.9559 31.4277 41.0031C31.5932 41.0503 31.7678 41.0683 31.9413 41.056C32.7984 41.056 33.1912 40.431 33.6211 39.6885C34.1468 38.781 34.621 37.726 34.621 37.726C34.621 37.726 34.0297 40.5773 35.6366 40.5773C36.2209 40.5773 36.8122 39.9123 37.0765 39.5773V39.5835C37.0765 39.5835 37.0908 39.5648 37.1208 39.5198L37.215 39.386V39.3735C37.4493 39.016 37.975 38.2035 38.7563 36.8548C39.7648 35.116 40.7361 32.9423 40.7361 32.9423C40.8298 33.42 40.9591 33.8918 41.1232 34.3548C41.3585 34.9159 41.6367 35.4626 41.956 35.991C41.7217 36.2785 41.576 36.4385 41.576 36.4385L41.5832 36.4448C41.3932 36.6623 41.1889 36.8985 40.9618 37.1285C40.2861 37.7786 39.6591 38.4663 39.0849 39.1873C38.9995 39.3084 38.9702 39.4534 39.0028 39.5928C39.0355 39.7321 39.1277 39.8553 39.2606 39.9373C39.5613 40.0742 39.904 40.1237 40.239 40.0785C40.7439 40.0536 41.2403 39.9543 41.7074 39.7848C42.1588 39.6458 42.5847 39.45 42.9716 39.2035C43.3705 38.9617 43.6915 38.6342 43.9039 38.2524C44.1163 37.8706 44.2129 37.4474 44.1843 37.0235C44.1394 36.4896 43.9835 35.9673 43.7244 35.4823C43.7972 35.3923 43.8672 35.3035 43.9358 35.2135C44.7479 34.1528 45.4799 33.0466 46.127 31.9023C46.2207 32.38 46.35 32.8518 46.5141 33.3148C46.7081 33.7997 46.947 34.27 47.2283 34.721C46.294 35.35 45.5581 36.1768 45.09 37.1235C44.63 38.2873 44.9871 38.811 45.6613 38.9323C46.0303 38.9545 46.3991 38.8884 46.7284 38.741C47.2124 38.6018 47.6684 38.3968 48.0797 38.1335C48.5133 37.9096 48.8764 37.5948 49.1365 37.2176C49.3966 36.8403 49.5454 36.4124 49.5695 35.9723C49.5371 35.533 49.4237 35.1012 49.2338 34.6935C50.4667 34.272 51.8034 34.1377 53.1134 34.3035C56.5902 34.661 57.2773 36.5598 57.1459 37.3598C57.0842 37.6434 56.9539 37.9122 56.7637 38.148C56.5735 38.3839 56.3278 38.5814 56.0431 38.7273C55.8017 38.861 55.7217 38.906 55.7432 39.0023C55.7717 39.1435 55.886 39.136 56.0931 39.111C56.6171 38.9685 57.0795 38.6903 57.4191 38.3132C57.7588 37.9361 57.9599 37.4777 57.9958 36.9985C58.1058 35.1235 56.0603 33.0673 52.4435 33.086L52.4392 33.0885ZM25.6134 40.9985C24.4592 42.0985 22.8522 42.5135 22.158 42.1623C21.4124 41.7873 21.7052 40.1623 23.1222 38.9973C23.9628 38.3351 24.8713 37.7422 25.8362 37.226C26.0048 37.136 26.2533 37.0085 26.5504 36.851L26.6304 36.8123L26.8061 36.716C27.0593 37.4583 27.0822 38.2461 26.8726 38.9987C26.663 39.7512 26.2284 40.4415 25.6134 40.9985ZM34.0139 35.9985C33.6126 36.8548 32.7726 39.0485 32.2613 38.926C31.8227 38.8235 31.5471 37.161 32.1741 35.5185C32.4907 34.7278 32.9519 33.9874 33.5397 33.326C34.1682 32.7123 34.8624 32.5073 35.0296 32.7573C34.8771 33.8759 34.5348 34.9683 34.0139 35.9985ZM40.9461 38.901C40.7775 38.9773 40.6176 39.026 40.5447 38.991C40.4933 38.966 40.6176 38.866 40.6176 38.866C40.6176 38.866 41.4875 38.0473 41.8303 37.6773C42.0274 37.4598 42.2588 37.2048 42.5102 36.916V36.9985C42.5102 37.976 41.4289 38.6348 40.9475 38.9035L40.9461 38.901ZM46.2941 37.8335C46.1698 37.7573 46.1913 37.501 46.6084 36.7023C46.8984 36.1893 47.3036 35.7327 47.7997 35.3598C47.8757 35.549 47.9153 35.748 47.9168 35.9485C47.9224 36.3755 47.7664 36.792 47.4732 37.1332C47.1799 37.4744 46.7658 37.7211 46.2955 37.8348L46.2941 37.8335Z" fill="#CD6799"/>
</g>
<defs>
<filter id="filter0_d_47_3" x="0" y="0" width="76" height="62.225" filterUnits="userSpaceOnUse" color-interpolation-filters="sRGB">
<feFlood flood-opacity="0" result="BackgroundImageFix"/>
<feColorMatrix in="SourceAlpha" type="matrix" values="0 0 0 0 0 0 0 0 0 0 0 0 0 0 0 0 0 0 127 0" result="hardAlpha"/>
<feOffset/>
<feGaussianBlur stdDeviation="9"/>
<feComposite in2="hardAlpha" operator="out"/>
<feColorMatrix type="matrix" values="0 0 0 0 0.803922 0 0 0 0 0.403922 0 0 0 0 0.6 0 0 0 0.7 0"/>
<feBlend mode="normal" in2="BackgroundImageFix" result="effect1_dropShadow_47_3"/>
<feBlend mode="normal" in="SourceGraphic" in2="effect1_dropShadow_47_3" result="shape"/>
</filter>
</defs>
</svg>
