<svg width="88" height="72" viewBox="0 0 88 72" fill="none" xmlns="http://www.w3.org/2000/svg">
<g filter="url(#filter0_d_4_8)">
<path d="M34 32C35.3333 26.6667 38.6667 24 44 24C52 24 53 30 57 31C59.6667 31.6667 62 30.6667 64 28C62.6667 33.3333 59.3333 36 54 36C46 36 45 30 41 29C38.3333 28.3333 36 29.3333 34 32ZM24 44C25.3333 38.6667 28.6667 36 34 36C42 36 43 42 47 43C49.6667 43.6667 52 42.6667 54 40C52.6667 45.3333 49.3333 48 44 48C36 48 35 42 31 41C28.3333 40.3333 26 41.3333 24 44Z" fill="#44A8B3"/>
</g>
<defs>
<filter id="filter0_d_4_8" x="0" y="0" width="88" height="72" filterUnits="userSpaceOnUse" color-interpolation-filters="sRGB">
<feFlood flood-opacity="0" result="BackgroundImageFix"/>
<feColorMatrix in="SourceAlpha" type="matrix" values="0 0 0 0 0 0 0 0 0 0 0 0 0 0 0 0 0 0 127 0" result="hardAlpha"/>
<feOffset/>
<feGaussianBlur stdDeviation="12"/>
<feComposite in2="hardAlpha" operator="out"/>
<feColorMatrix type="matrix" values="0 0 0 0 0.266667 0 0 0 0 0.658824 0 0 0 0 0.701961 0 0 0 0.5 0"/>
<feBlend mode="normal" in2="BackgroundImageFix" result="effect1_dropShadow_4_8"/>
<feBlend mode="normal" in="SourceGraphic" in2="effect1_dropShadow_4_8" result="shape"/>
</filter>
</defs>
</svg>
