<svg width="78" height="78" viewBox="0 0 78 78" fill="none" xmlns="http://www.w3.org/2000/svg">
<g filter="url(#filter0_d_49_33)">
<path d="M19 39V59H59V19H19V39ZM51.235 37.4067C52.2517 37.66 53.025 38.1117 53.7367 38.8483C54.105 39.2417 54.6517 39.9583 54.695 40.1317C54.7083 40.1817 52.9683 41.3483 51.915 42.0033C51.8767 42.0283 51.7233 41.8633 51.5533 41.61C51.0367 40.86 50.4983 40.5367 49.6733 40.48C48.46 40.3967 47.68 41.0317 47.6867 42.0917C47.6756 42.3523 47.7343 42.6112 47.8567 42.8417C48.1233 43.3933 48.62 43.725 50.1733 44.3967C53.0383 45.63 54.2633 46.4417 55.025 47.5967C55.875 48.885 56.0667 50.9433 55.4883 52.4733C54.855 54.1367 53.28 55.2667 51.0633 55.64C50.3783 55.7617 48.7533 55.7433 48.0167 55.61C46.41 55.3233 44.8867 54.53 43.9467 53.4883C43.5783 53.0833 42.86 52.0217 42.905 51.9467C42.9233 51.92 43.0883 51.8183 43.2717 51.7117C43.4517 51.61 44.1233 51.2217 44.7583 50.8533L45.9083 50.1867L46.15 50.5433C46.4867 51.0567 47.2217 51.7617 47.6667 51.9967C48.9433 52.67 50.695 52.575 51.5583 51.8C51.7319 51.6538 51.8694 51.4693 51.9599 51.2612C52.0504 51.053 52.0915 50.8267 52.08 50.6C52.08 50.1367 52.0217 49.9333 51.78 49.5833C51.47 49.14 50.835 48.7667 49.0317 47.9833C46.9683 47.095 46.08 46.5433 45.2667 45.6667C44.759 45.0881 44.3841 44.4055 44.1683 43.6667C44.0167 43.1017 43.9783 41.685 44.0983 41.115C44.5233 39.12 46.0283 37.7317 48.2 37.3183C48.905 37.185 50.5433 37.235 51.235 37.4067ZM41.845 39.0767L41.8583 40.715H36.65V55.5083H32.9667V40.715H27.7633V39.1083C27.7633 38.2183 27.7817 37.475 27.8067 37.4583C27.8267 37.4317 30.995 37.4183 34.835 37.425L41.8267 37.445L41.845 39.0767Z" fill="#3178C6" stroke="#3178C6" stroke-width="0.264"/>
</g>
<defs>
<filter id="filter0_d_49_33" x="0.867996" y="0.867996" width="76.264" height="76.264" filterUnits="userSpaceOnUse" color-interpolation-filters="sRGB">
<feFlood flood-opacity="0" result="BackgroundImageFix"/>
<feColorMatrix in="SourceAlpha" type="matrix" values="0 0 0 0 0 0 0 0 0 0 0 0 0 0 0 0 0 0 127 0" result="hardAlpha"/>
<feOffset/>
<feGaussianBlur stdDeviation="9"/>
<feComposite in2="hardAlpha" operator="out"/>
<feColorMatrix type="matrix" values="0 0 0 0 0.192157 0 0 0 0 0.470588 0 0 0 0 0.776471 0 0 0 0.25 0"/>
<feBlend mode="normal" in2="BackgroundImageFix" result="effect1_dropShadow_49_33"/>
<feBlend mode="normal" in="SourceGraphic" in2="effect1_dropShadow_49_33" result="shape"/>
</filter>
</defs>
</svg>
